<svg width="160" height="160" viewBox="0 0 160 160" fill="none" xmlns="http://www.w3.org/2000/svg">
<rect width="160" height="160" rx="30" fill="#414040"/>
<path d="M84.9342 42L117 115.736H106.558L79.8712 53.7978H79.4493L58.8808 105.94C57.4744 109.521 55.8571 112.26 54.0288 114.156C52.2708 116.052 50.2667 117 48.0164 117C46.61 117 45.2037 116.895 43.7973 116.684C42.4612 116.473 41.1954 116.157 40 115.736L42.8479 108.573C43.5511 108.924 44.3247 109.346 45.1685 109.837C46.0123 110.329 46.8913 110.574 47.8055 110.574C50.126 110.574 51.8137 109.626 52.8685 107.73C53.9936 105.834 55.1539 103.306 56.3493 100.146L79.1329 42H84.9342Z" fill="white"/>
</svg>
